<mxfile host="app.diagrams.net" modified="2024-03-04T01:41:43.283Z" agent="Mozilla/5.0 (Windows NT 10.0; Win64; x64) AppleWebKit/537.36 (KHTML, like Gecko) Chrome/121.0.0.0 Safari/537.36" version="23.1.8" etag="1Z8A29AS3xMYTs3kKM-8" type="github">
  <diagram name="第 1 页" id="BrtlBp_-f-LWdGb7xtbo">
    <mxGraphModel>
      <root>
        <mxCell id="0" />
        <mxCell id="1" parent="0" />
      </root>
    </mxGraphModel>
  </diagram>
</mxfile>
